<svg width="18" height="19" viewBox="0 0 18 19" fill="none" xmlns="http://www.w3.org/2000/svg">
<path d="M17.9667 9.375C17.9667 8.725 17.9084 8.1 17.8001 7.5H9.16675V11.05H14.1001C13.8834 12.1917 13.2334 13.1583 12.2584 13.8083V16.1167H15.2334C16.9667 14.5167 17.9667 12.1667 17.9667 9.375Z" fill="#4285F4"/>
<path d="M9.16673 18.3332C11.6417 18.3332 13.7167 17.5165 15.2334 16.1165L12.2584 13.8082C11.4417 14.3582 10.4001 14.6915 9.16673 14.6915C6.7834 14.6915 4.7584 13.0832 4.0334 10.9165H0.983398V13.2832C2.49173 16.2748 5.5834 18.3332 9.16673 18.3332Z" fill="#34A853"/>
<path d="M4.03333 10.9081C3.85 10.3581 3.74167 9.77477 3.74167 9.16644C3.74167 8.55811 3.85 7.97477 4.03333 7.42477V5.05811H0.983333C0.358333 6.29144 0 7.68311 0 9.16644C0 10.6498 0.358333 12.0414 0.983333 13.2748L3.35833 11.4248L4.03333 10.9081Z" fill="#FBBC05"/>
<path d="M9.16673 3.65C10.5167 3.65 11.7167 4.11667 12.6751 5.01667L15.3001 2.39167C13.7084 0.908333 11.6417 0 9.16673 0C5.5834 0 2.49173 2.05833 0.983398 5.05833L4.0334 7.425C4.7584 5.25833 6.7834 3.65 9.16673 3.65Z" fill="#EA4335"/>
</svg>
